<?xml version="1.0" encoding="UTF-8" standalone="no"?>
<svg
   xmlns:dc="http://purl.org/dc/elements/1.1/"
   xmlns:cc="http://creativecommons.org/ns#"
   xmlns:rdf="http://www.w3.org/1999/02/22-rdf-syntax-ns#"
   xmlns:svg="http://www.w3.org/2000/svg"
   xmlns="http://www.w3.org/2000/svg"
   xmlns:sodipodi="http://sodipodi.sourceforge.net/DTD/sodipodi-0.dtd"
   xmlns:inkscape="http://www.inkscape.org/namespaces/inkscape"
   width="15.604412cm"
   height="2.2908602cm"
   version="1.1"
   viewBox="0 0 156.04564 22.908828"
   id="svg915"
   sodipodi:docname="groops_white.svg"
   inkscape:version="0.92.4 (5da689c313, 2019-01-14)">
  <metadata
     id="metadata921">
    <rdf:RDF>
      <cc:Work
         rdf:about="">
        <dc:format>image/svg+xml</dc:format>
        <dc:type
           rdf:resource="http://purl.org/dc/dcmitype/StillImage" />
        <dc:title></dc:title>
      </cc:Work>
    </rdf:RDF>
  </metadata>
  <defs
     id="defs919" />
  <sodipodi:namedview
     pagecolor="#ffffff"
     bordercolor="#666666"
     borderopacity="1"
     objecttolerance="10"
     gridtolerance="10"
     guidetolerance="10"
     inkscape:pageopacity="0"
     inkscape:pageshadow="2"
     inkscape:window-width="1920"
     inkscape:window-height="1139"
     id="namedview917"
     showgrid="false"
     inkscape:zoom="1.8828125"
     inkscape:cx="250.56889"
     inkscape:cy="-45.300729"
     inkscape:window-x="0"
     inkscape:window-y="0"
     inkscape:window-maximized="1"
     inkscape:current-layer="g913"
     inkscape:pagecheckerboard="true"
     fit-margin-top="0"
     fit-margin-left="1"
     fit-margin-right="1"
     fit-margin-bottom="0"
     units="cm" />
  <g
     id="g913"
     style="stroke:#000000"
     transform="translate(9.8597808,-5.2451016)">
    <path
       d="m 0.89027,16.058 6.4256,-7.0398 9.1187,3.26 7.1985,15.125 z"
       id="path893"
       style="fill:none;stroke:#ffffff;stroke-width:1.5;stroke-linejoin:round;stroke-opacity:1"
       inkscape:connector-curvature="0" />
    <path
       d="M 16.435,12.279 29.806,7.2944 24.6561,5.9951 7.3161,9.0189 Z"
       id="path895"
       style="fill:none;stroke:#ffffff;stroke-width:1.5;stroke-linejoin:round;stroke-opacity:1"
       inkscape:connector-curvature="0" />
    <path
       d="M 23.633,27.404 33.0182,14.381 29.8054,7.2939 16.4344,12.2785 Z"
       id="path897"
       style="fill:none;stroke:#ffffff;stroke-width:1.5;stroke-linejoin:round;stroke-opacity:1"
       inkscape:connector-curvature="0" />
    <ellipse
       transform="matrix(0.8499,-0.52694,0.45178,0.89213,0,0)"
       cx="3.4844999"
       cy="18.232"
       rx="1.4355"
       ry="1.9442"
       id="ellipse899"
       style="fill:none;stroke:#ffffff;stroke-width:0.50093001;stroke-linejoin:round;stroke-opacity:1" />
    <ellipse
       transform="matrix(0.83776,-0.54604,0.43398,0.90092,0,0)"
       cx="1.1214"
       cy="15.175"
       rx="0.54491001"
       ry="0.75727999"
       id="ellipse901"
       style="fill:none;stroke:#ffffff;stroke-width:0.50208002;stroke-linejoin:round;stroke-opacity:1" />
    <path
       d="m 17.071,21.286 1.4469,0.66146 -0.1571,0.7028 -1.4304,-0.68626 z"
       id="path903"
       style="fill:none;stroke:#ffffff;stroke-width:0.5;stroke-opacity:1"
       inkscape:connector-curvature="0" />
    <path
       d="m 25.04,15.407 0.8599,-2.249 -1.2237,-2.1497 -1.4883,0.59532 z"
       id="path905"
       style="fill:none;stroke:#ffffff;stroke-width:0.5;stroke-opacity:1"
       inkscape:connector-curvature="0" />
    <path
       d="m 19.333,7.9458 3.39,0.93431 -1.91,0.19843 -2.2986,-0.66972 z"
       style="fill:none;stroke:#ffffff;stroke-width:0.5;stroke-opacity:1;paint-order:normal"
       id="path907"
       inkscape:connector-curvature="0" />
    <path
       d="m 20.813,9.0785 -0.95912,0.43822 -3.0262,-0.91777 1.6867,-0.19017 z"
       id="path909"
       style="fill:none;stroke:#ffffff;stroke-width:0.5;stroke-opacity:1"
       inkscape:connector-curvature="0" />
    <ellipse
       transform="matrix(0.98338,0.18157,-0.2256,0.97422,0,0)"
       cx="24.334999"
       cy="3.5093"
       rx="1.4404"
       ry="0.34965"
       style="fill:none;stroke:#ffffff;stroke-width:0.50024998;stroke-linejoin:round;stroke-opacity:1;paint-order:normal"
       id="ellipse911" />
    <g
       aria-label="GROOPS"
       style="font-style:normal;font-weight:normal;font-size:10.58343792px;line-height:1.25;font-family:sans-serif;letter-spacing:0px;word-spacing:0px;fill:#000000;fill-opacity:1;stroke:none;stroke-width:0.26458594"
       id="text963">
      <path
         d="m 53.560542,16.372224 v 6.610514 q -0.508501,0.744148 -1.934784,1.686736 -1.426284,0.942587 -4.452486,0.942587 -3.299055,0 -5.419877,-2.257249 -2.120822,-2.269651 -2.120822,-6.325257 v -1.401479 q 0,-4.030801 1.885175,-6.3004522 1.885175,-2.2696512 5.38267,-2.2696512 3.100617,0 4.700535,1.5627106 1.61232,1.5627108 1.959589,3.9687888 h -2.393676 q -0.248049,-1.463491 -1.227844,-2.5177 -0.967392,-1.0542099 -3.038604,-1.0542099 -2.492895,0 -3.67113,1.7611499 -1.178234,1.748748 -1.190636,4.762547 v 1.488296 q 0,3.125421 1.413881,4.886571 1.413881,1.748748 3.733142,1.748748 1.922382,0 2.778152,-0.446489 0.85577,-0.458891 1.215442,-0.868172 v -4.043204 h -4.179631 v -1.934785 z"
         style="font-style:normal;font-variant:normal;font-weight:normal;font-stretch:normal;font-size:25.40024948px;font-family:Roboto;-inkscape-font-specification:'Roboto, Normal';font-variant-ligatures:normal;font-variant-caps:normal;font-variant-numeric:normal;font-feature-settings:normal;text-align:start;writing-mode:lr-tb;text-anchor:start;fill:#ffffff;stroke-width:0.26458594"
         id="path832" />
      <path
         d="m 68.08383,25.364012 -3.919179,-7.317455 h -4.241643 v 7.317455 H 57.529332 V 7.3060219 h 5.977988 q 3.038604,0 4.67573,1.3890761 1.649528,1.389076 1.649528,4.030801 0,1.686736 -0.917783,2.951787 -0.90538,1.252649 -2.5177,1.872772 l 4.241643,7.664724 v 0.14883 z M 59.923008,9.2656115 V 16.09937 h 3.658727 q 1.922382,0 2.889775,-0.979795 0.979794,-0.992197 0.979794,-2.393676 0,-1.56271 -0.942587,-2.505298 Q 65.578532,9.2656115 63.50732,9.2656115 Z"
         style="font-style:normal;font-variant:normal;font-weight:normal;font-stretch:normal;font-size:25.40024948px;font-family:Roboto;-inkscape-font-specification:'Roboto, Normal';font-variant-ligatures:normal;font-variant-caps:normal;font-variant-numeric:normal;font-feature-settings:normal;text-align:start;writing-mode:lr-tb;text-anchor:start;fill:#ffffff;stroke-width:0.26458594"
         id="path834" />
      <path
         d="m 87.109212,16.90553 q 0,4.068009 -1.971992,6.38727 -1.971992,2.319261 -5.271048,2.319261 -3.212239,0 -5.246243,-2.319261 -2.034004,-2.319261 -2.034004,-6.38727 v -1.141027 q 0,-4.055606 2.021601,-6.3748669 2.021602,-2.3316635 5.233841,-2.3316635 3.274251,0 5.246243,2.2944561 1.984394,2.2820533 2.021602,6.2632453 z m -2.368871,-1.165832 q 0,-3.224641 -1.289857,-4.936181 -1.289856,-1.7115401 -3.609117,-1.7115401 -2.220041,0 -3.559508,1.7115401 -1.327064,1.71154 -1.327064,4.936181 v 1.165832 q 0,3.249446 1.339467,4.973389 1.351868,1.71154 3.57191,1.71154 2.331663,0 3.596715,-1.71154 1.277454,-1.723943 1.277454,-4.973389 z"
         style="font-style:normal;font-variant:normal;font-weight:normal;font-stretch:normal;font-size:25.40024948px;font-family:Roboto;-inkscape-font-specification:'Roboto, Normal';font-variant-ligatures:normal;font-variant-caps:normal;font-variant-numeric:normal;font-feature-settings:normal;text-align:start;writing-mode:lr-tb;text-anchor:start;fill:#ffffff;stroke-width:0.26458594"
         id="path836" />
      <path
         d="m 104.57188,16.90553 q 0,4.068009 -1.97199,6.38727 -1.97199,2.319261 -5.271045,2.319261 -3.212239,0 -5.246243,-2.319261 -2.034004,-2.319261 -2.034004,-6.38727 v -1.141027 q 0,-4.055606 2.021602,-6.3748669 2.021601,-2.3316635 5.23384,-2.3316635 3.27425,0 5.24624,2.2944561 1.9844,2.2820533 2.0216,6.2632453 z m -2.36887,-1.165832 q 0,-3.224641 -1.28985,-4.936181 -1.289859,-1.7115401 -3.60912,-1.7115401 -2.220041,0 -3.559508,1.7115401 -1.327063,1.71154 -1.327063,4.936181 v 1.165832 q 0,3.249446 1.339466,4.973389 1.351869,1.71154 3.57191,1.71154 2.331664,0 3.596715,-1.71154 1.27745,-1.723943 1.27745,-4.973389 z"
         style="font-style:normal;font-variant:normal;font-weight:normal;font-stretch:normal;font-size:25.40024948px;font-family:Roboto;-inkscape-font-specification:'Roboto, Normal';font-variant-ligatures:normal;font-variant-caps:normal;font-variant-numeric:normal;font-feature-settings:normal;text-align:start;writing-mode:lr-tb;text-anchor:start;fill:#ffffff;stroke-width:0.26458594"
         id="path838" />
      <path
         d="m 110.52507,18.282204 v 7.081808 h -2.39368 V 7.3060219 h 6.66012 q 3.07582,0 4.70054,1.5503082 1.63712,1.5503079 1.63712,3.9563869 0,2.61692 -1.63712,4.043203 -1.62472,1.426284 -4.70054,1.426284 z m 0,-9.0165925 v 7.0694055 h 4.26644 q 2.10842,0 3.02621,-0.979795 0.91778,-0.979795 0.91778,-2.5177 0,-1.389077 -0.91778,-2.480494 -0.91779,-1.0914165 -3.02621,-1.0914165 z"
         style="font-style:normal;font-variant:normal;font-weight:normal;font-stretch:normal;font-size:25.40024948px;font-family:Roboto;-inkscape-font-specification:'Roboto, Normal';font-variant-ligatures:normal;font-variant-caps:normal;font-variant-numeric:normal;font-feature-settings:normal;text-align:start;writing-mode:lr-tb;text-anchor:start;fill:#ffffff;stroke-width:0.26458594"
         id="path840" />
      <path
         d="m 133.77969,20.799904 q 0,-1.240246 -0.84337,-1.984394 -0.83096,-0.744148 -3.50989,-1.525503 -2.67894,-0.793758 -4.24165,-2.0092 -1.55031,-1.227844 -1.55031,-3.311458 0,-2.1084192 1.67434,-3.5098978 1.68673,-1.4014786 4.46488,-1.4014786 3.05101,0 4.70054,1.6743328 1.66193,1.6743326 1.66193,3.7827516 h -2.38127 q 0,-1.5131 -0.9798,-2.505298 -0.97979,-0.9921969 -3.0014,-0.9921969 -1.90998,0 -2.82776,0.8433677 -0.91778,0.8309652 -0.91778,2.0836142 0,1.128624 0.96739,1.885175 0.9798,0.744148 3.17503,1.364271 3.13783,0.880575 4.57651,2.182834 1.43869,1.289856 1.43869,3.398276 0,2.207638 -1.72394,3.5223 -1.72395,1.314661 -4.57651,1.314661 -1.66193,0 -3.23705,-0.620123 -1.56271,-0.620123 -2.57971,-1.835565 -1.0046,-1.227844 -1.0046,-3.026202 h 2.38127 q 0,1.847968 1.35187,2.691335 1.35187,0.843368 3.08822,0.843368 1.87277,0 2.87737,-0.768953 1.017,-0.781355 1.017,-2.096017 z"
         style="font-style:normal;font-variant:normal;font-weight:normal;font-stretch:normal;font-size:25.40024948px;font-family:Roboto;-inkscape-font-specification:'Roboto, Normal';font-variant-ligatures:normal;font-variant-caps:normal;font-variant-numeric:normal;font-feature-settings:normal;text-align:start;writing-mode:lr-tb;text-anchor:start;fill:#ffffff;stroke-width:0.26458594"
         id="path842" />
    </g>
  </g>
</svg>
