<svg fill="#0370C6" viewBox="0 0 48 48" xmlns="http://www.w3.org/2000/svg"><path d="m 18.162234,30.322864 v 5.367219 h 5.367219 L 39.366328,19.853209 33.999109,14.48599 Z m 25.34043,-14.605992 c 0.558191,-0.558191 0.558191,-1.46704 0,-2.025231 l -3.341988,-3.341988 c -0.558191,-0.5581909 -1.46704,-0.5581909 -2.025231,0 l -2.619202,2.619203 5.367219,5.367219 z M 8.1557985,5.6455022 c -2.21,0 -4,1.7899998 -4,4.0000001 V 37.645502 c 0,2.21 1.79,4 4,4 H 36.155799 c 2.21,0 4,-1.79 4,-4 V 22.254877 L 24.745642,37.665033 H 16.155799 V 31.645502 29.07519 L 27.585486,17.645502 H 8.1557985 V 9.6455023 H 28.155799 V 17.07519 L 35.870642,9.3603456 32.155799,5.6455022 Z"/></svg>
