<svg fill="#9E9E9E" viewBox="0 0 48 48" xmlns="http://www.w3.org/2000/svg"><path d="M 4.4745765,18.711864 H 37.220338 V 30.101695 H 4.4745765 Z M 4,6 h 30 c 1.38,0 2.47,0.7 3.19,1.76 L 48,23.99 37.19,40.22 C 36.47,41.28 35.25,42 33.87,42 H 4 C 1.79,42 0,40.21 0,38 V 10 C 0,7.79 1.79,6 4,6 Z m 26,21 c 1.66,0 3,-1.34 3,-3 0,-1.66 -1.34,-3 -3,-3 -1.66,0 -3,1.34 -3,3 0,1.66 1.34,3 3,3 z m -10,0 c 1.66,0 3,-1.34 3,-3 0,-1.66 -1.34,-3 -3,-3 -1.66,0 -3,1.34 -3,3 0,1.66 1.34,3 3,3 z m -10,0 c 1.66,0 3,-1.34 3,-3 0,-1.66 -1.34,-3 -3,-3 -1.66,0 -3,1.34 -3,3 0,1.66 1.34,3 3,3 z"/></svg>
